<svg width="86" height="86" viewBox="0 0 86 86" fill="none" xmlns="http://www.w3.org/2000/svg">
<path d="M83.1213 15.927L83.7141 15.3343C85.355 13.6931 85.3553 11.0376 83.7141 9.39637L76.591 2.27345C74.9499 0.632044 72.2944 0.632212 70.6531 2.27328L70.0603 2.86603L67.6843 0.491329C67.0282 -0.164056 65.9653 -0.16372 65.3094 0.492001C64.6538 1.14789 64.6542 2.21115 65.3101 2.86687L67.6854 5.24106L62.9357 9.9908L60.5613 7.61644C59.9054 6.96088 58.8425 6.96088 58.1865 7.61644C57.5307 8.27216 57.5307 9.33541 58.1865 9.9913L60.5608 12.3657L59.9667 12.9598C58.7529 14.1731 58.4405 15.9522 59.0284 17.459L44.8032 31.6769C40.8079 28.1617 35.1672 26.7537 29.9707 28.0826C25.1054 29.3264 21.6614 32.7402 20.5216 37.4474C20.1609 38.9327 18.7175 39.9498 17.0112 39.9095C10.2472 39.7719 3.99304 43.71 1.34581 49.9181C-2.0411 57.8611 1.03449 67.4348 9.78421 76.1847C16.9263 83.3267 26.7873 88.6016 36.0674 84.6439C42.275 81.9962 46.1995 75.7352 46.0579 68.9575C46.0221 67.2506 47.0349 65.8073 48.5206 65.4476C50.9129 64.868 52.958 63.7231 54.5987 62.0451C55.2469 61.382 55.2351 60.3189 54.572 59.6704C53.9091 59.0221 52.8457 59.0343 52.1973 59.6971C51.0038 60.9181 49.5006 61.7546 47.73 62.1837C44.6998 62.9173 42.6315 65.7316 42.7002 69.0277C42.8134 74.4442 39.6184 79.4782 34.75 81.5547C28.136 84.3757 19.9018 81.5529 12.1591 73.81C4.42896 66.08 1.61364 57.8519 4.435 51.2354C6.51501 46.3572 11.5401 43.1468 16.9414 43.2672C20.2312 43.3384 23.0496 41.2688 23.7854 38.239C24.9326 33.5009 28.6743 31.8806 30.8025 31.3364C34.7924 30.3165 39.2713 31.4074 42.4186 34.0602L30.2921 46.178C27.9484 46.2467 25.7008 47.2053 24.0321 48.8758C20.4322 52.4758 20.4321 58.3348 24.0321 61.937C27.6329 65.5377 33.4921 65.5378 37.0938 61.9363C38.7622 60.2659 39.7202 58.0193 39.7905 55.6765L51.9194 43.5565C52.8297 44.6307 53.5726 45.8674 54.0992 47.2003C54.4394 48.0612 55.413 48.4862 56.2781 48.145C57.1405 47.8043 57.5635 46.8287 57.2228 45.9661C56.5278 44.207 55.5307 42.5777 54.3013 41.1762L68.5275 26.9588C70.0534 27.5544 71.8265 27.2221 73.0276 26.0206L73.6218 25.4263L75.9962 27.8007C76.6523 28.4564 77.715 28.4563 78.3711 27.8007C79.0268 27.145 79.0268 26.0817 78.3711 25.4258L75.9967 23.0515L80.7465 18.3017L83.1206 20.6771C83.7759 21.3327 84.8393 21.3337 85.4955 20.6778C86.1514 20.0222 86.1517 18.959 85.4962 18.3029L83.1213 15.927ZM34.7186 59.5618C32.427 61.8532 28.6982 61.8532 26.4073 59.5621C24.1162 57.2699 24.116 53.5411 26.4074 51.2495C28.6797 48.9749 32.4045 48.9361 34.7192 51.2508C37.0368 53.5661 36.9871 57.2905 34.7186 59.5618ZM39.0215 51.6973C38.564 50.6539 37.9144 49.6956 37.0933 48.8753C36.2726 48.0548 35.3145 47.4053 34.2721 46.9481C34.2904 46.9298 61.076 20.1604 61.1539 20.0827L65.9038 24.8326C64.8344 25.9012 39.3311 51.3879 39.0215 51.6973ZM81.3392 12.9594C79.7745 14.5241 72.0234 22.2754 70.6529 23.6459C70.326 23.9728 69.7931 23.9722 69.4652 23.6447L62.3424 16.522C62.015 16.194 62.0145 15.6612 62.3414 15.3341C63.7125 13.9631 71.4722 6.20357 73.0277 4.64798C73.3557 4.31986 73.8877 4.31936 74.2161 4.64798L81.3394 11.7711C81.6673 12.099 81.668 12.631 81.3392 12.9594Z" fill="white"/>
</svg>
